<svg xmlns="http://www.w3.org/2000/svg" viewBox="0 0 650 220"><rect width="650" height="220" rx="18" fill="#F7F8F5"/><text x="30" y="43" fill="#10264F" font-family="Arial" font-size="15" font-weight="700">Signals &amp; context</text><text x="557" y="43" fill="#10264F" font-family="Arial" font-size="15" font-weight="700">Outcomes</text><g fill="#10264F"><circle cx="52" cy="75" r="9"/><path d="M43 102h18v18H43z"/><path d="M45 140h14v14H45z"/></g><g stroke="#10264F" stroke-width="3" fill="none"><path d="M83 84h39"/><path d="M83 111h39"/><path d="M83 147h39"/><path d="m112 77 10 7-10 7m0 13 10 7-10 7m-10 22 10 7-10 7"/></g><g><rect x="145" y="67" width="100" height="71" rx="8" fill="#DCEBD9" stroke="#9ABF9E" stroke-width="2"/><text x="171" y="96" fill="#10264F" font-family="Arial" font-size="14" font-weight="700">Observe</text><text x="165" y="116" fill="#53617B" font-family="Arial" font-size="12">Ingest &amp; ground</text><rect x="283" y="67" width="113" height="71" rx="8" fill="#DCEBD9" stroke="#9ABF9E" stroke-width="2"/><text x="308" y="96" fill="#10264F" font-family="Arial" font-size="14" font-weight="700">Reason</text><text x="301" y="116" fill="#53617B" font-family="Arial" font-size="12">Plan &amp; learn</text><rect x="433" y="67" width="92" height="71" rx="8" fill="#C9D8F4" stroke="#92A9D7" stroke-width="2"/><text x="455" y="96" fill="#10264F" font-family="Arial" font-size="14" font-weight="700">Act</text><text x="448" y="116" fill="#53617B" font-family="Arial" font-size="12">Tools &amp; code</text></g><g stroke="#10264F" stroke-width="3" fill="none"><path d="M245 103h28m-10-7 10 7-10 7m123-7h27m-10-7 10 7-10 7m122-19h39m-10-7 10 7-10 7m-39 26h39m-10-7 10 7-10 7"/></g><path d="M479 139v26c0 14-12 25-25 25H204c-14 0-25-11-25-25v-15" stroke="#53617B" stroke-width="3" stroke-dasharray="8 8" fill="none"/><path d="m194 157 10-7 8 10" stroke="#53617B" stroke-width="3" fill="none"/><text x="284" y="211" fill="#53617B" font-family="Arial" font-size="13" font-weight="700">Feedback loop · evaluate · improve · remember</text><path d="M584 70v64m-16-32h32M620 84v36m-18-18h36" stroke="#10264F" stroke-width="3"/></svg>