<svg xmlns="http://www.w3.org/2000/svg" viewBox="0 0 360 190"><rect width="360" height="190" fill="#FFF0EC"/><g stroke="#26334C" stroke-width="2.5"><path d="m66 70 54 33 55-13 52 35 45-52"/><path d="m87 132 33-29 55 51 52-29 30 29"/><path d="m120 103 17-55 38 42 40-18 57 15"/><path d="m215 72 12 53 45 29"/></g><g fill="#FF9D89"><circle cx="66" cy="70" r="8"/><circle cx="120" cy="103" r="8"/><circle cx="175" cy="90" r="8"/><circle cx="227" cy="125" r="8"/><circle cx="272" cy="73" r="8"/><circle cx="87" cy="132" r="10"/><circle cx="175" cy="154" r="10"/><circle cx="257" cy="154" r="13"/></g><circle cx="177" cy="92" r="25" fill="#FF694D"/><circle cx="137" cy="48" r="11" fill="#FFB09F"/><circle cx="272" cy="52" r="7" fill="#FFB09F"/></svg>