<svg xmlns="http://www.w3.org/2000/svg" viewBox="0 0 360 190"><rect width="360" height="190" fill="#F1F7F0"/><path d="M63 132h112c25 0 38-31 17-49-4-3-8-5-13-6C167 42 119 34 95 57a45 45 0 0 0-8 13c-35-3-53 26-41 47 4 9 10 13 17 15Z" fill="#C8DFC9"/><path d="M150 64c16-24 47-29 68-10" stroke="#7FA889" stroke-width="3" stroke-dasharray="5 7"/><path d="m221 113 36-21 43 25v44l-40 24-39-25v-47Z" fill="#9BB99E"/><path d="m221 113 39 25 40-21M260 138v47" stroke="#59745E" stroke-width="2"/><path d="m251 39 36-21 43 25v44l-40 24-39-25V39Z" fill="#6F9075"/><path d="m251 39 39 25 40-21M290 64v47" stroke="#46634C" stroke-width="2"/><rect x="159" y="115" width="34" height="38" rx="4" fill="#91B595"/><path d="M193 134h28m40-13 0-13m-1 53 0-24" stroke="#10264F" stroke-width="2"/></svg>