<svg xmlns="http://www.w3.org/2000/svg" viewBox="0 0 360 190"><rect width="360" height="190" fill="#F5F0FB"/><circle cx="70" cy="70" r="33" fill="#8272C4"/><rect x="152" y="60" width="90" height="72" fill="none" stroke="#B5ABD7" stroke-width="2"/><path d="m260 29 40 0-20 46Z" fill="#7361B4"/><path d="m202 95 26 42h-52Z" fill="#8374C5"/><g fill="#9E92CE"><circle cx="135" cy="68" r="2"/><circle cx="148" cy="68" r="2"/><circle cx="161" cy="68" r="2"/><circle cx="174" cy="68" r="2"/><circle cx="135" cy="81" r="2"/><circle cx="148" cy="81" r="2"/><circle cx="161" cy="81" r="2"/><circle cx="174" cy="81" r="2"/></g><path d="M247 134c0-22 17-38 38-38 16 0 29 9 35 22 6-13 19-22 35-22 21 0 38 16 38 38v16c0 12-10 21-22 21-9 0-16-5-20-13l-12-21h-36l-12 21c-4 8-11 13-20 13-12 0-22-9-22-21v-16Z" fill="#10264F"/><path d="M277 130v16m-8-8h16m79-8h1m10 8h1" stroke="white" stroke-width="4" stroke-linecap="round"/></svg>