<svg xmlns="http://www.w3.org/2000/svg" viewBox="0 0 560 440" fill="none"><rect width="560" height="440" rx="24" fill="#F1F5F0"/><rect x="266" y="157" width="206" height="148" fill="#CFE0CE"/><circle cx="399" cy="80" r="61" fill="#FF694D"/><circle cx="234" cy="120" r="80" fill="#FFFDF9"/><g fill="#10264F"><circle cx="185" cy="80" r="2.5"/><circle cx="210" cy="80" r="2.5"/><circle cx="235" cy="80" r="2.5"/><circle cx="260" cy="80" r="2.5"/><circle cx="285" cy="80" r="2.5"/><circle cx="185" cy="105" r="2.5"/><circle cx="210" cy="105" r="2.5"/><circle cx="235" cy="105" r="2.5"/><circle cx="260" cy="105" r="2.5"/><circle cx="285" cy="105" r="2.5"/><circle cx="185" cy="130" r="2.5"/><circle cx="210" cy="130" r="2.5"/><circle cx="235" cy="130" r="2.5"/><circle cx="260" cy="130" r="2.5"/><circle cx="285" cy="130" r="2.5"/><circle cx="185" cy="155" r="2.5"/><circle cx="210" cy="155" r="2.5"/><circle cx="235" cy="155" r="2.5"/><circle cx="260" cy="155" r="2.5"/><circle cx="285" cy="155" r="2.5"/></g><rect x="132" y="226" width="88" height="100" rx="6" fill="#10264F"/><path d="M68 127v111a27 27 0 0 0 27 27h37M67 127h84" stroke="#10264F" stroke-width="4"/><circle cx="151" cy="127" r="7" fill="#10264F"/><path d="M220 276h58v57" stroke="#FF8A74" stroke-width="4" stroke-dasharray="13 12"/><path d="M381 141v67c0 24-19 43-43 43h-44c-18 0-33 15-33 33v12" stroke="#10264F" stroke-width="4"/><circle cx="261" cy="296" r="7" fill="#10264F"/><path d="M262 297h105c25 0 45 20 45 45v48" stroke="#10264F" stroke-width="4"/><circle cx="412" cy="390" r="7" fill="#10264F"/><circle cx="412" cy="420" r="23" fill="#C6DDC9"/></svg>